<svg xmlns="http://www.w3.org/2000/svg" xmlns:xlink="http://www.w3.org/1999/xlink" viewBox="0 0 32.061 10.652"><defs><radialGradient id="radial-gradient" cx="1.185" cy="8.696" r="11.557" gradientUnits="userSpaceOnUse"><stop offset="0" stop-color="#4d4d4d"/><stop offset="0.223" stop-color="#494949"/><stop offset="0.454" stop-color="#3c3c3c"/><stop offset="0.689" stop-color="#282828"/><stop offset="0.926" stop-color="#0b0b0b"/><stop offset="1"/></radialGradient><radialGradient id="radial-gradient-2" cx="5.53" cy="9.631" r="6.302" xlink:href="#radial-gradient"/><radialGradient id="radial-gradient-3" cx="7.991" cy="2.074" r="2.143" gradientUnits="userSpaceOnUse"><stop offset="0" stop-color="#42c0ef"/><stop offset="0.194" stop-color="#3fb2e5"/><stop offset="0.558" stop-color="#398ecc"/><stop offset="1" stop-color="#2f5ba8"/></radialGradient><linearGradient id="linear-gradient" x1="5.812" y1="3.984" x2="9.36" y2="8.329" xlink:href="#radial-gradient-3"/><radialGradient id="radial-gradient-4" cx="10.158" cy="4.314" r="3.773" xlink:href="#radial-gradient"/><linearGradient id="linear-gradient-2" x1="14.232" y1="9.397" x2="32.088" y2="9.397" gradientUnits="userSpaceOnUse"><stop offset="0" stop-color="#2f5ba8"/><stop offset="0.34" stop-color="#1c7cc4"/><stop offset="0.77" stop-color="#089fe2"/><stop offset="1" stop-color="#00adee"/></linearGradient><linearGradient id="linear-gradient-3" x1="14.232" y1="9.348" x2="32.088" y2="9.348" xlink:href="#linear-gradient-2"/><linearGradient id="linear-gradient-4" x1="14.232" y1="9.405" x2="32.088" y2="9.405" xlink:href="#linear-gradient-2"/></defs><g id="Layer_2" data-name="Layer 2"><g id="Layer_1-2" data-name="Layer 1"><path d="M2.41,5.331A2.913,2.913,0,0,1,6.429,2.637L7.818.629A5.321,5.321,0,0,0,1.845,9.356L3.222,7.344A2.9,2.9,0,0,1,2.41,5.331Z" fill="url(#radial-gradient)"/><path d="M9.756,7.688v.583c-.019.029-.039.057-.058.085a5.316,5.316,0,0,1-7.853,1L3.222,7.344a2.907,2.907,0,0,0,4.431-.271,2.87,2.87,0,0,0,.319-.537H8.6A1.153,1.153,0,0,1,9.756,7.688Z" fill="url(#radial-gradient-2)"/><circle cx="8.762" cy="2.53" r="1.19" fill="url(#radial-gradient-3)"/><path d="M9.439,4.125H5.45L3.812,6.536H8.6A1.152,1.152,0,0,1,9.755,7.688v.583a5.29,5.29,0,0,0,.889-2.94A1.205,1.205,0,0,0,9.439,4.125Z" fill="url(#linear-gradient)"/><path d="M9.756,7.688v.583c-.019.029-.039.057-.058.085l-.052-.389a1.153,1.153,0,0,0-1.3-.988l-.625.085-.072.009a2.87,2.87,0,0,0,.319-.537H8.6A1.153,1.153,0,0,1,9.756,7.688Z" fill="url(#radial-gradient-4)"/><path d="M16.656,4.725a1.25,1.25,0,0,0-.53-.508,1.707,1.707,0,0,0-.793-.176h-1V6.924h.575v-2.4h.4a.938.938,0,0,1,.7.253.981.981,0,0,1,.245.705.954.954,0,0,1-.245.7.948.948,0,0,1-.7.248h-.386l.274.492h.133a1.683,1.683,0,0,0,.793-.178,1.252,1.252,0,0,0,.53-.5,1.484,1.484,0,0,0,.189-.759A1.5,1.5,0,0,0,16.656,4.725Z" fill="#414141"/><path d="M18.937,4.507V4.036H17.276V6.924h1.661V6.453H17.851V5.689h.708l.256-.455v0h-.964V4.507Z" fill="#414141"/><path d="M21.336,5.657a.824.824,0,0,0-.3-.25,3.375,3.375,0,0,0-.455-.165,2.8,2.8,0,0,1-.319-.11.593.593,0,0,1-.189-.122.267.267,0,0,1-.075-.194.309.309,0,0,1,.1-.251.4.4,0,0,1,.271-.087.46.46,0,0,1,.309.1.332.332,0,0,1,.125.245l.037-.067.245-.436.053-.093-.007-.008A1.13,1.13,0,0,0,20.4,4a1.31,1.31,0,0,0-.527.1.807.807,0,0,0-.357.292.776.776,0,0,0-.128.445.686.686,0,0,0,.128.436.786.786,0,0,0,.3.245,3.629,3.629,0,0,0,.456.163,2.96,2.96,0,0,1,.322.106.561.561,0,0,1,.194.128.306.306,0,0,1,.077.213.312.312,0,0,1-.114.253.479.479,0,0,1-.317.1.44.44,0,0,1-.309-.1.15.15,0,0,1-.021-.024.416.416,0,0,1-.1-.259l-.1.179-.24.426a.682.682,0,0,0,.152.1.4.4,0,0,0,.1.05,1.337,1.337,0,0,0,.54.1A1.2,1.2,0,0,0,21,6.836a.849.849,0,0,0,.349-.317.812.812,0,0,0,.12-.428A.685.685,0,0,0,21.336,5.657Z" fill="#414141"/><path d="M21.961,4.041V6.924h.573V4.041Z" fill="#414141"/><path d="M24.52,5.321l-.245.437v0h.987a.831.831,0,0,1-.277.49.8.8,0,0,1-.537.176.93.93,0,0,1-.469-.117.807.807,0,0,1-.314-.33,1.088,1.088,0,0,1-.112-.5,1.051,1.051,0,0,1,.112-.5.794.794,0,0,1,.306-.332.872.872,0,0,1,.453-.115.811.811,0,0,1,.4.1.675.675,0,0,1,.271.274l.312-.554a1.017,1.017,0,0,0-.144-.111A1.469,1.469,0,0,0,24.424,4a1.5,1.5,0,0,0-.746.186,1.347,1.347,0,0,0-.524.524,1.612,1.612,0,0,0,0,1.526,1.362,1.362,0,0,0,.524.522,1.515,1.515,0,0,0,.751.189,1.411,1.411,0,0,0,.666-.158,1.361,1.361,0,0,0,.487-.409,1.4,1.4,0,0,0,.247-.559v-.5Z" fill="#414141"/><path d="M28.132,4.036V6.019l-1.3-1.983h-.575V6.924h.575V4.946l1.3,1.978h.575V4.036Z" fill="#414141"/><path d="M15.9,1.315l-.248.439v0h.985a.852.852,0,0,1-.274.49.813.813,0,0,1-.538.175.926.926,0,0,1-.468-.117.779.779,0,0,1-.312-.33,1.032,1.032,0,0,1-.114-.5,1.056,1.056,0,0,1,.112-.495.826.826,0,0,1,.306-.33A.892.892,0,0,1,15.8.533a.8.8,0,0,1,.4.095.667.667,0,0,1,.272.277l.311-.556a1.027,1.027,0,0,0-.143-.112A1.584,1.584,0,0,0,15.051.189a1.343,1.343,0,0,0-.525.524,1.512,1.512,0,0,0-.191.759,1.515,1.515,0,0,0,.191.762,1.357,1.357,0,0,0,.525.519,1.48,1.48,0,0,0,.748.189,1.418,1.418,0,0,0,1.153-.565,1.344,1.344,0,0,0,.244-.556V1.315Z" fill="#414141"/><path d="M19.076,1.749a.851.851,0,0,0,.489-.314.866.866,0,0,0,.166-.514.89.89,0,0,0-.12-.45.819.819,0,0,0-.349-.317A1.268,1.268,0,0,0,18.7.037h-1.07V2.915h.57V.516h.481a.5.5,0,0,1,.349.11.407.407,0,0,1,.115.308.426.426,0,0,1-.115.314.484.484,0,0,1-.349.115h-.452L19.1,2.915h.663Z" fill="#414141"/><path d="M21.772.035H21.1l-1.028,2.88h.6l.189-.546.157-.46L21.434.7l.416,1.209h-.613l-.157.46H22l.192.546H22.8Z" fill="#414141"/><path d="M25.153.471A.772.772,0,0,0,24.8.154a1.262,1.262,0,0,0-.565-.117H23.183V2.918h.575V.508h.456c.311,0,.465.139.465.421a.4.4,0,0,1-.114.306.486.486,0,0,1-.351.109h-.437l.261.469h.2a1.231,1.231,0,0,0,.583-.125.808.808,0,0,0,.341-.325A.913.913,0,0,0,25.27.929.912.912,0,0,0,25.153.471Z" fill="#414141"/><path d="M27.474.037V1.344H26.25V.037h-.575V2.918h.575v-1.1h1.224v1.1h.575V.037Z" fill="#414141"/><path d="M28.614.037V2.918h.575V.037Z" fill="#414141"/><path d="M31.75,2.013a.812.812,0,0,1-.123.183.617.617,0,0,1-.154.125.809.809,0,0,1-.413.1.83.83,0,0,1-.444-.117.819.819,0,0,1-.3-.333,1.109,1.109,0,0,1-.109-.5,1.109,1.109,0,0,1,.109-.5.819.819,0,0,1,.748-.45.809.809,0,0,1,.413.1.7.7,0,0,1,.274.306l.311-.556A1.092,1.092,0,0,0,31.9.248,1.443,1.443,0,0,0,31.065,0a1.467,1.467,0,0,0-.739.189A1.342,1.342,0,0,0,29.8.713a1.532,1.532,0,0,0-.189.759,1.535,1.535,0,0,0,.189.762,1.356,1.356,0,0,0,.522.519,1.447,1.447,0,0,0,.739.189,1.466,1.466,0,0,0,.842-.245.035.035,0,0,0,.013-.011.876.876,0,0,0,.141-.117Z" fill="#414141"/><path d="M20.626,8.162a.042.042,0,0,0-.033-.013.532.532,0,0,0-.235.086l-.023.012-.026.013a3.3,3.3,0,0,0-.541.4c-.055.048-.11.1-.18.17-.1.092-.2.2-.319.336l-.022.025a.913.913,0,0,0-.065.073.894.894,0,0,1-.063.075l.011-.023.014-.03a.469.469,0,0,1,.021-.045c.009-.019.018-.038.025-.056s.014-.031.02-.046l.012-.028a.568.568,0,0,0,.042-.13c.018-.073-.019-.093-.031-.1s-.043,0-.094.035A1.4,1.4,0,0,0,19,9.041l-.015.014.008-.022a1.937,1.937,0,0,0,.1-.354.417.417,0,0,0,0-.232.174.174,0,0,0-.108-.1.359.359,0,0,0-.186,0,1.251,1.251,0,0,0-.241.073h-.007c-.095.041-.19.09-.288.142-.031.019-.064.037-.1.057-.062.037-.13.081-.2.131a2.9,2.9,0,0,0-.289.219c-.03.022-.063.052-.093.079s-.062.062-.091.094a.2.2,0,0,0-.026.029l-.015.016H14.332V9.26h3.134l.034-.037.03-.031v0l.005,0,.015-.017.022-.024a2.9,2.9,0,0,1,.279-.241c.09-.064.2-.135.321-.211l.014-.01.015-.01a2.809,2.809,0,0,1,.375-.193.211.211,0,0,1,.034-.016.7.7,0,0,1,.294-.059l.024,0a.223.223,0,0,1,.027,0l.019.007.008,0a.1.1,0,0,1,.036.042l0,0a.064.064,0,0,1,.012.029v.062A.787.787,0,0,1,19,8.768a2.526,2.526,0,0,1-.111.291l-.01.022-.011.023-.038.091-.094.1a4.887,4.887,0,0,0-.376.434,2.33,2.33,0,0,0-.236.388.536.536,0,0,0-.066.2.071.071,0,0,0,.024.052.051.051,0,0,0,.057.017.213.213,0,0,0,.1-.059.951.951,0,0,0,.126-.137,1.731,1.731,0,0,0,.134-.179l.008-.012c.05-.073.1-.155.148-.242a.411.411,0,0,0,.036-.063l.02-.04c.012-.022.023-.045.034-.068s.023-.048.037-.074c.022-.047.045-.09.07-.138l.028-.061.017-.04.009-.026.007-.016.008-.016,0-.01.011-.012.014-.014.01-.011a.148.148,0,0,0,.028-.028l.086-.078c.015-.014.03-.026.044-.037s.023-.018.032-.027l.025-.016.016-.011a.726.726,0,0,1-.037.072c-.018.041-.042.087-.067.133-.013.021-.024.039-.037.063-.046.083-.087.16-.13.242a.466.466,0,0,0-.058.142c-.012.04-.012.067,0,.084a.048.048,0,0,0,.038.018.051.051,0,0,0,.049-.013.6.6,0,0,0,.041-.056L19,9.638c.07-.1.151-.205.22-.291.028-.034.058-.069.088-.1l.045-.053c.026-.031.053-.061.081-.092l.036-.04c.051-.057.106-.111.164-.169a.887.887,0,0,1,.068-.069l.037-.037a3.045,3.045,0,0,1,.273-.238c.05-.04.1-.079.155-.117l.045-.033c.032-.017.059-.034.085-.051s.042-.028.063-.039a.379.379,0,0,0,.034-.02l.011-.007a.91.91,0,0,1,.143-.066c.031-.011.038-.009.038-.009a.045.045,0,0,1,0,.023c-.007.013-.018.031-.034.061s-.031.047-.053.081l-.036.056-.029.045-.129.2c-.1.15-.172.256-.231.351h-.009V9.03l-.087.136-.129.205c-.069.111-.128.208-.177.293a3.346,3.346,0,0,0-.165.3,1.016,1.016,0,0,0-.084.215,1.458,1.458,0,0,0-.074.291.217.217,0,0,0,.034.154.071.071,0,0,0,.05.024.079.079,0,0,0,.051-.024c.009-.014.02-.033.012-.049a.028.028,0,0,0-.026-.014h-.006a.231.231,0,0,1,0-.044.651.651,0,0,1,.018-.1c.006-.036.014-.076.025-.123l.009-.028a.757.757,0,0,1,.03-.088,3.66,3.66,0,0,1,.215-.482c.073-.139.169-.311.288-.509.04-.06.079-.123.118-.188.03-.046.052-.081.07-.114l.03-.046.032-.05.025-.038a.616.616,0,0,1,.051-.074l.025-.041.071-.113a1.487,1.487,0,0,0,.144-.249C20.653,8.205,20.641,8.174,20.626,8.162ZM18.653,9.529c-.05.091-.105.187-.164.275s-.108.168-.165.249l-.021.026c-.013.017-.026.034-.041.051s-.047.052-.067.072l-.027.029-.011.012,0-.017,0-.014.009-.021a.235.235,0,0,0,.014-.037.264.264,0,0,0,.015-.029l.011-.023a1.883,1.883,0,0,1,.142-.245c.064-.093.142-.194.23-.3l.009-.009c.016-.019.034-.039.051-.061s.045-.05.061-.071l.016-.015C18.707,9.432,18.685,9.476,18.653,9.529Z" fill="url(#linear-gradient-2)"/><path d="M23.216,9.445a.021.021,0,0,0-.025-.01.415.415,0,0,0-.08.031l-.028.012h0a.376.376,0,0,1-.129.043c-.023,0-.032,0-.035,0a.475.475,0,0,1-.027-.068l-.006-.018-.007-.021a.1.1,0,0,0-.019-.034.088.088,0,0,0-.114,0l-.04.036-.052.046-.035.035.012-.023.013-.025.017-.034a.052.052,0,0,0,0-.039l0-.007-.005,0-.021-.009c-.025,0-.057.018-.1.069a1.8,1.8,0,0,0-.136.186,2.294,2.294,0,0,1-.331.239c-.119.068-.175.072-.2.064a.03.03,0,0,1-.02-.018c-.007-.016-.012-.058.035-.16l.012-.028.005,0c.05.034.116.01.2-.072a.574.574,0,0,0,.067-.087.167.167,0,0,0,.031-.076.086.086,0,0,0-.028-.056.079.079,0,0,0-.054-.028.2.2,0,0,0-.069.016.314.314,0,0,0-.078.044.516.516,0,0,0-.118.1.533.533,0,0,0-.064.093l-.008.008-.028.027c-.021.02-.044.043-.069.07-.059.064-.112.113-.155.153l-.016.015c-.038.038-.073.069-.1.094l-.014.013-.031.02a.5.5,0,0,1-.053.031.194.194,0,0,1-.056.015.032.032,0,0,1-.032-.006c0-.006-.017-.027,0-.094a3.065,3.065,0,0,1,.449-.921l.062-.1.108,0c.091,0,.167,0,.231-.006s.1,0,.136,0l.077,0,.08,0-.007.01a.026.026,0,0,0,0,.025A.024.024,0,0,0,22.379,9l.041,0,.036,0a.644.644,0,0,0,.068-.011l.011,0a.075.075,0,0,0,.059-.056c0-.016,0-.045-.044-.064l-.007,0h-.02a.153.153,0,0,0-.045,0c-.023,0-.055,0-.105,0l-.065.005c-.035,0-.076.007-.121.01h-.012c-.084.007-.317.03-.39.026l.009-.013.012-.017a.438.438,0,0,1,.039-.052.426.426,0,0,1,.056-.079.533.533,0,0,0,.041-.06l.009-.013,0,0,.019-.025L22,8.6c.017-.028.023-.038.023-.048a.05.05,0,0,0-.056-.051c-.028,0-.058.022-.1.075l-.015.021a.337.337,0,0,0-.028.038c-.023.028-.045.06-.071.1L21.7,8.8l-.066.1-.139.008c-.082,0-.161,0-.228,0a.93.93,0,0,1-.167-.023.2.2,0,0,0-.068-.011H21.03A.056.056,0,0,0,21,8.909a.044.044,0,0,0-.007.039.062.062,0,0,0,.037.034.078.078,0,0,0,.049.013h0c.024,0,.066,0,.129,0,.04,0,.089,0,.141,0a1.1,1.1,0,0,0,.139-.008c.033,0,.065,0,.09,0h.012l0,.006-.008.016-.009.015-.007.014c0,.008-.009.016-.016.026-.1.166-.179.316-.244.456h-.008v.006l-.048.026-.017.01c-.058.035-.111.065-.168.1s-.074.04-.094.052l-.055.031V9.734a.589.589,0,0,1-.016-.147.182.182,0,0,1,.049-.1.123.123,0,0,1,.042-.036l0,0A.035.035,0,0,0,21,9.475a.033.033,0,0,0,.028.006.065.065,0,0,0,.046-.044.077.077,0,0,0-.007-.081.091.091,0,0,0-.08-.036h0a.26.26,0,0,0-.134.061.285.285,0,0,0-.083.14.358.358,0,0,0-.006.074h0c-.013.011-.025.021-.041.037-.086.086-.155.15-.211.2a.515.515,0,0,1-.14.083l-.01,0-.012,0h0l-.009,0-.005,0s-.016,0-.019-.031a.272.272,0,0,1,0-.1,1.01,1.01,0,0,1,.059-.164.222.222,0,0,0,.03-.1c0-.02-.013-.041-.051-.041a.017.017,0,0,1-.012-.008.076.076,0,0,0-.081-.049.246.246,0,0,0-.126.039.633.633,0,0,0-.122.082.48.48,0,0,0-.1.11.588.588,0,0,0-.072.12.3.3,0,0,0-.027.116.11.11,0,0,0,.047.107.074.074,0,0,0,.064.012.217.217,0,0,0,.114-.051,1.15,1.15,0,0,0,.155-.163l.014-.02.008-.01,0,0a.263.263,0,0,0,0,.079.218.218,0,0,0,.017.091c.024.049.079.1.2.036a1.114,1.114,0,0,0,.173-.128c.055-.05.109-.1.161-.161a.546.546,0,0,0,.019.066l.017.052-.087.051c-.047.026-.084.047-.113.065l-.084.057a.187.187,0,0,0-.048.053l0,.006a.157.157,0,0,0-.009.046.068.068,0,0,0,.03.058.207.207,0,0,0,.13.056h.018a.434.434,0,0,0,.164-.034.24.24,0,0,0,.117-.114.269.269,0,0,0,.025-.164V9.872a.2.2,0,0,1,0-.034.168.168,0,0,0-.008-.026s0,0,0-.008a.524.524,0,0,1,.077-.044l.1-.058.068-.04.075-.043a1.57,1.57,0,0,0-.126.355.193.193,0,0,0,.045.2.118.118,0,0,0,.066.018.376.376,0,0,0,.213-.11.869.869,0,0,0,.069-.064l.028-.027c.023-.023.049-.048.076-.077l.095-.1v.007a.194.194,0,0,0,.015.111.118.118,0,0,0,.059.066.164.164,0,0,0,.086.012.309.309,0,0,0,.056,0,.267.267,0,0,0,.055-.022c.025-.012.057-.03.1-.053l.023-.013c.043-.027.093-.06.145-.1l.027-.022v0a.328.328,0,0,0-.035.1.053.053,0,0,0,.006.024c0,.009.006.015.009.022a.055.055,0,0,0,.08.016l0,0c.01-.01.031-.035.056-.067s.045-.059.075-.1l.038-.05c.029-.043.063-.087.105-.139l.083-.092.016-.018.017-.013a.4.4,0,0,1,.048-.036l.012-.007,0,.025v.011a.26.26,0,0,0,.022.071.1.1,0,0,0,.1.062.35.35,0,0,0,.122-.032.555.555,0,0,0,.136-.08C23.21,9.472,23.222,9.46,23.216,9.445ZM21.964,9.6l.015-.018.015-.018.016-.018a.125.125,0,0,1,.027-.025.189.189,0,0,1,.049-.032l.029-.013s0,.016-.037.05A.561.561,0,0,1,22,9.585a.338.338,0,0,1-.044.018ZM20.27,9.562a1.208,1.208,0,0,1-.075.1h0a1.531,1.531,0,0,1-.121.142.584.584,0,0,1-.1.086c-.037.025-.048.026-.051.026s-.006-.016.031-.088a.774.774,0,0,1,.12-.167.481.481,0,0,1,.151-.119.108.108,0,0,1,.045-.015h0l0,0A.05.05,0,0,1,20.27,9.562Zm.436.527a.279.279,0,0,1-.115,0c-.044-.008-.053-.019-.053-.023s0-.029.1-.093l.023-.014.034-.022.063-.039.034-.022.021-.013.014-.007,0,.024c0,.031,0,.053,0,.069A.169.169,0,0,1,20.706,10.089Z" fill="url(#linear-gradient-3)"/><path d="M29.661,9.185l-.005,0c-.057.052-.413.372-.452.4a2.071,2.071,0,0,1-.357.261c-.1.056-.161.078-.2.064a.031.031,0,0,1-.021-.017c-.009-.019-.009-.062.037-.16l.011-.027,0,0c.048.034.116.01.2-.073a.542.542,0,0,0,.064-.082.155.155,0,0,0,.032-.077.1.1,0,0,0-.026-.059.084.084,0,0,0-.056-.031.207.207,0,0,0-.067.019l-.052.026-.03.016-.016.016a.051.051,0,0,1-.021.017l-.013.007-.024.013c-.022.011-.053.028-.095.052s-.064.037-.094.055l-.075.044a.97.97,0,0,0-.107.06l-.041.023,0-.007a.415.415,0,0,1-.015-.146.163.163,0,0,1,.047-.1.154.154,0,0,1,.044-.035l0,0a.035.035,0,0,0,.012.025.033.033,0,0,0,.028.006.072.072,0,0,0,.047-.046.083.083,0,0,0-.087-.115.177.177,0,0,0-.071.018.257.257,0,0,0-.065.044.275.275,0,0,0-.069.1.3.3,0,0,1-.11.035.074.074,0,0,1-.033,0v0c-.006-.013-.017-.033-.027-.06a.1.1,0,0,0-.013-.044.1.1,0,0,0-.019-.034c-.015-.017-.049-.04-.111,0a.908.908,0,0,0-.091.082l-.043.042.012-.02.007-.012a.3.3,0,0,1,.018-.036l.01-.021c.009-.022,0-.034,0-.04a.038.038,0,0,0-.029-.019c-.024,0-.056.018-.1.07a2.378,2.378,0,0,0-.159.22.355.355,0,0,0-.034.055l-.005.009a.451.451,0,0,0-.053.045l-.017.015a.713.713,0,0,0-.067.057.769.769,0,0,1-.1.062l0,0a.161.161,0,0,1-.067.027c-.008,0-.009,0-.01,0s-.012-.023.008-.089a1.259,1.259,0,0,1,.137-.3l.007-.014a.237.237,0,0,0,.028-.07.055.055,0,0,0-.007-.045l0-.005,0,0c-.039-.02-.077.022-.1.056a.779.779,0,0,1-.06.07l-.052.054c-.018.019-.037.038-.055.058-.039.041-.077.077-.113.111l-.041.035-.041.036-.023.017a.41.41,0,0,1-.041.026.083.083,0,0,1-.021.014l0-.007a.3.3,0,0,1,.03-.073.975.975,0,0,1,.054-.105.986.986,0,0,1,.077-.112l0-.007c.026-.041.037-.058.037-.072a.054.054,0,0,0-.015-.038l0,0a.085.085,0,0,0-.036-.012.1.1,0,0,0-.07.042.858.858,0,0,0-.069.09l-.007.01-.036.018-.045.021a.668.668,0,0,1-.131.04l0-.014a.343.343,0,0,0,.022-.12.142.142,0,0,0-.024-.091.089.089,0,0,0-.073-.027.143.143,0,0,0-.083.022.1.1,0,0,1-.036.009.109.109,0,0,0-.077.03.468.468,0,0,0-.073.079.626.626,0,0,0-.043.06l-.13.13-.1.1-.07.069c-.032.028-.06.055-.086.08l-.042.04c-.035.032-.066.059-.1.091a1.011,1.011,0,0,1-.095.075,2.088,2.088,0,0,1-.349.219,1.663,1.663,0,0,1-.328.126l-.069.008c-.026,0-.058,0-.094,0a.675.675,0,0,1-.09,0,.451.451,0,0,1-.065,0,.476.476,0,0,1-.4-.386A.612.612,0,0,1,24.07,10a.712.712,0,0,1,.015-.165,1.707,1.707,0,0,1,.088-.261,1.475,1.475,0,0,1,.142-.266,2.386,2.386,0,0,1,.25-.33,3.737,3.737,0,0,1,.3-.3,2.277,2.277,0,0,1,.32-.238,1.383,1.383,0,0,1,.309-.149.645.645,0,0,1,.288-.041.153.153,0,0,1,.131.111.172.172,0,0,1,.012.077c0,.03-.007.065-.013.1a.912.912,0,0,1-.054.156,1.515,1.515,0,0,1-.082.167c-.031.057-.066.11-.1.16a1.494,1.494,0,0,1-.1.133l-.012.012a.035.035,0,0,0-.023-.02c-.018,0-.04.005-.067.032-.038.044-.084.108-.04.157s.124-.014.179-.071a1.164,1.164,0,0,0,.188-.261,2.189,2.189,0,0,0,.155-.337c.081-.245.046-.4-.1-.473a.336.336,0,0,0-.125-.025.444.444,0,0,0-.159.016,1.326,1.326,0,0,0-.39.152,2.565,2.565,0,0,0-.395.27,2.954,2.954,0,0,0-.367.359,2.157,2.157,0,0,0-.283.409,1.02,1.02,0,0,0-.117.932.928.928,0,0,0,.139.2.549.549,0,0,0,.325.137l.079,0,.088,0a1.274,1.274,0,0,0,.18-.032,2.027,2.027,0,0,0,.784-.438l.007-.005c.016-.014.04-.034.073-.064l.027-.028c.029-.029.062-.063.1-.1l.2-.2-.006.022A.451.451,0,0,0,26,9.944a.1.1,0,0,0,.028.06.125.125,0,0,0,.045.039.109.109,0,0,0,.058,0,.262.262,0,0,0,.062-.012.6.6,0,0,0,.227-.239c.023-.046.039-.055.041-.056a1.4,1.4,0,0,0,.171-.054.435.435,0,0,0-.045.107.15.15,0,0,0,.013.155c.022.026.064.048.139,0a1.794,1.794,0,0,0,.249-.238l.014-.016a.484.484,0,0,0-.014.049.327.327,0,0,0-.022.087.234.234,0,0,0,.01.112.118.118,0,0,0,.061.062c.053.018.126-.01.229-.088.013-.01.028-.022.046-.038l0,.019a.091.091,0,0,0,0,.025l0,.005,0,0,.008.013a.05.05,0,0,0,.032.024.058.058,0,0,0,.045-.01.257.257,0,0,0,.06-.065c.029-.039.065-.089.112-.151.03-.042.068-.09.108-.139l.042-.047c.022-.024.042-.046.06-.062a.252.252,0,0,1,.062-.051l.012-.007h0a.144.144,0,0,0,0,.033.186.186,0,0,0,.022.075.108.108,0,0,0,.1.064.413.413,0,0,0,.116-.033.4.4,0,0,0,.024.17l.019.052L28.1,9.83c-.071.04-.114.065-.144.084l-.019.013a.5.5,0,0,0-.061.046.171.171,0,0,0-.045.044l0,0a.119.119,0,0,0-.012.053.1.1,0,0,0,.029.064.241.241,0,0,0,.13.052.428.428,0,0,0,.182-.036.224.224,0,0,0,.117-.112.275.275,0,0,0,.025-.167V9.87a.243.243,0,0,1,0-.035l-.005-.015,0-.008s0,0,0-.008a.648.648,0,0,1,.076-.046c.03-.016.062-.034.095-.054l.071-.041.05-.031-.034.058a.551.551,0,0,0-.04.131.192.192,0,0,0,.013.112.15.15,0,0,0,.063.068.179.179,0,0,0,.082.009.321.321,0,0,0,.058,0,.146.146,0,0,0,.052-.022,1.088,1.088,0,0,0,.123-.066l.023-.016a1.2,1.2,0,0,0,.118-.084.825.825,0,0,0,.089-.073c.034-.027.067-.057.1-.083l.006-.006c.031-.026.4-.349.449-.4h2.368V9.185Zm-.913.411.014-.017c.01-.012.022-.024.034-.036a.111.111,0,0,1,.025-.025l.019-.012.031-.021.025-.009h0a.138.138,0,0,1-.033.046.449.449,0,0,1-.078.062l-.017.007-.029.013Zm-2.4.183h0a.417.417,0,0,1-.143.157c-.038.018-.067.022-.077.013s-.019-.028.006-.108l.014-.033c.008-.018.015-.035.02-.049a.513.513,0,0,1,.049-.084l.012-.022a.178.178,0,0,0,.128.086l.013,0Zm.069-.144h0c-.006.016-.01.026-.013.032a.114.114,0,0,1-.052-.013.09.09,0,0,1-.034-.024.075.075,0,0,1,.006-.083A.149.149,0,0,1,26.4,9.48a.032.032,0,0,1,.016-.005l.008,0,0,0,0,.012v0a.257.257,0,0,1,0,.045A.336.336,0,0,1,26.417,9.635Zm1.634.451h0a.216.216,0,0,1-.111.008c-.047-.008-.056-.017-.056-.023s.018-.037.1-.093L28,9.968l.038-.025c.017-.009.036-.02.054-.032l.013-.009a.391.391,0,0,1,.057-.033l.01-.007,0,.026V9.9c0,.021,0,.038,0,.051C28.176,10.018,28.134,10.059,28.051,10.086Z" fill="url(#linear-gradient-4)"/><rect x="29.188" y="4.038" width="2.855" height="2.828" fill="#414141"/><polygon points="30.616 4.861 30.616 6.07 29.928 6.446 30.616 4.861" fill="#d0d2d3"/><polygon points="30.616 4.861 30.616 6.07 31.303 6.446 30.616 4.861" fill="#fff"/><path d="M31.681,5.65h-.045a1.021,1.021,0,1,0-2.041,0H29.55a1.066,1.066,0,1,1,2.131,0Z" fill="#fff"/><path d="M29.692,5.65a.12.12,0,1,1-.119-.12A.119.119,0,0,1,29.692,5.65Z" fill="#fff"/><rect x="30.467" y="4.459" width="0.296" height="0.296" fill="#d0d2d3"/><path d="M31.778,5.65a.12.12,0,1,1-.12-.12A.119.119,0,0,1,31.778,5.65Z" fill="#fff"/></g></g></svg>