<svg xmlns="http://www.w3.org/2000/svg" viewBox="0 0 162.61 116.388"><g id="Layer_2" data-name="Layer 2"><g id="Layer_1-2" data-name="Layer 1"><path d="M0,13.28v7.258H7.905v4.405l8.032,4.794L7.712,34.854v7.97l-.065.066,20.342,6.087V51.7a4.115,4.115,0,0,0-3.046-1.1,4.083,4.083,0,0,0-3.335,1.425,6.762,6.762,0,0,0-1.651,3.5,6.334,6.334,0,0,0-2.172-3.469A6.824,6.824,0,0,0,13.218,50.6a8.558,8.558,0,0,0-6.545,2.784,9.81,9.81,0,0,0-2.592,6.934q0,4.725,2.95,7.158a11.363,11.363,0,0,0,7.481,2.43,16.618,16.618,0,0,0,2.464-.2V63.362a17,17,0,0,1-2.075.127,3.8,3.8,0,0,1-2.46-.778,2.883,2.883,0,0,1-.975-2.395,2.988,2.988,0,0,1,.747-2.106,2.41,2.41,0,0,1,1.845-.808q2.466,0,2.464,3.43v.389h6.931v-.389q0-3.494,2.333-3.5,1.941,0,2.2,2.2V69.708h7.97V31.747q8.421,0,8.421,4.728a3.53,3.53,0,0,1-1.036,2.753,4,4,0,0,1-2.788.939h-.843v6.866A13.674,13.674,0,0,0,41.4,47.1q5.25,0,8.163-2.88a10.394,10.394,0,0,0,2.915-7.743,10.339,10.339,0,0,0-4.5-8.91q-4.5-3.206-12.017-3.2h-7.97v17.1L17.1,37.9l6.546-4.081V26.433l-8.813-5.895h41.2V13.28Z" fill="#333"/><path d="M68.025,13.28V8.1H59.281V9.264a34.529,34.529,0,0,0,.647,6.218,3.488,3.488,0,0,0-3.239-2.2H53.447v7.258h2.076a3.769,3.769,0,0,1,2.753.743q.681.745.681,3.273V57.675a12.069,12.069,0,0,1,8.829.119l.239.112V20.538h5.506V13.28Z" fill="#333"/><path d="M104.823,13.28a17.683,17.683,0,0,0,.258-3.042q0-4.863-2.718-7.55T94.523,0A45.4,45.4,0,0,0,87.3.778a44.554,44.554,0,0,1-6.576.778,12.511,12.511,0,0,1-5.9-1.1V7.385A13.229,13.229,0,0,0,81.563,8.81a47.725,47.725,0,0,0,6.288-.616,48.881,48.881,0,0,1,5.633-.613,3.1,3.1,0,0,1,2.691.971,5.257,5.257,0,0,1,.678,2.98c0,.089-.012.347-.031.778s-.031.754-.031.97H70.94v7.258h5.506V46.193A9.96,9.96,0,0,0,80.2,54.356,13.861,13.861,0,0,0,89.21,57.4a16.207,16.207,0,0,0,12.664-5.379A17.818,17.818,0,0,0,106.7,39.778q0-6.087-3.465-9.718t-9.753-3.627a18.38,18.38,0,0,0-4.082.454v7.9a14.176,14.176,0,0,1,2.723-.258q5.5,0,5.506,5.248a11.054,11.054,0,0,1-2.3,6.769,7.261,7.261,0,0,1-6.122,3.077,3.878,3.878,0,0,1-2.657-.905,3.174,3.174,0,0,1-1.036-2.526V20.538h24.62V13.28Z" fill="#333"/><path d="M122.119,13.28V8.1h-8.744V9.264a34.529,34.529,0,0,0,.647,6.218,3.488,3.488,0,0,0-3.238-2.2h-3.242v7.258h2.075a3.768,3.768,0,0,1,2.753.743q.681.745.681,3.273V52.968a17.54,17.54,0,0,1,9.068-7.7V20.538h5.506V13.28Z" fill="#333"/><path d="M125.034,13.28v7.258h23.322V24.1a53.306,53.306,0,0,0-19.63,10.43v8.683l19.568,13.538.062-.062v.062H157.1V20.538h5.506V13.28Zm23.322,34.014L136.889,39a48.872,48.872,0,0,1,11.467-6.284Z" fill="#333"/><path d="M102.932,111.7a7.528,7.528,0,0,1-.92.037,5.334,5.334,0,0,1-4.987-2.7,14.828,14.828,0,0,1-1.637-7.192,26.919,26.919,0,0,1,.387-4.618,21.621,21.621,0,0,1,1.25-4.378,8,8,0,0,1,2.54-3.442,6.3,6.3,0,0,1,3.955-1.287h.368V90.14h-.368a4.127,4.127,0,0,0-2.814,1.048,6.726,6.726,0,0,0-1.841,2.8,18.767,18.767,0,0,0-.938,3.717,27.89,27.89,0,0,0-.294,4.14q0,7.874,4.636,7.873h.663Z" fill="#333"/><path d="M128.613,101.1a6.521,6.521,0,0,1-1.766,4.912,5.953,5.953,0,0,1-4.3,1.711,4.675,4.675,0,0,1-.7-.036v-2.135h.478q4.047,0,4.048-4.452a5.48,5.48,0,0,0-2.19-4.544,8.719,8.719,0,0,0-5.537-1.711v16.6H116.4l-11.591-9.089V99.633a33.636,33.636,0,0,1,5.648-4.342A16.823,16.823,0,0,1,116.4,92.9V90.14H102.415V88.116h28.553V90.14H118.642v2.686a10.992,10.992,0,0,1,7.212,2.355A7.393,7.393,0,0,1,128.613,101.1ZM116.4,108.721V94.96q-4.453,1.067-9.752,6.034Z" fill="#333"/><path d="M140.572,90.14h-4.416v21.3h-2.244V93.3q0-3.165-2.466-3.164H129.5V88.116h1.95a2.854,2.854,0,0,1,2.723,1.619,27.742,27.742,0,0,1-.257-3.532V84.988h2.244v3.128h4.416Z" fill="#333"/><path d="M157.129,111.444h-2.246v-8.352a3.814,3.814,0,0,0-.68-2.3,2.246,2.246,0,0,0-1.931-.938,2.773,2.773,0,0,0-1.729.626,6.8,6.8,0,0,0-1.435,1.527q-.627.9-1.326,1.821a6.132,6.132,0,0,1-1.729,1.545,4.3,4.3,0,0,1-2.281.626,6.163,6.163,0,0,1-2.429-.552v-2.023a8.04,8.04,0,0,0,2.134.4,2.78,2.78,0,0,0,1.8-.625,9.691,9.691,0,0,0,1.711-1.968,19.655,19.655,0,0,1,1.38-1.822,9.3,9.3,0,0,0-2.134-5.391,6.029,6.029,0,0,0-4.747-2.042V90.14H139.1V88.116h22.444V90.14h-4.414ZM151.978,97.72a3.154,3.154,0,0,1,2.905,1.508V90.14H143.956a8.015,8.015,0,0,1,4.286,2.962,11.031,11.031,0,0,1,2.08,4.912A4.591,4.591,0,0,1,151.978,97.72Z" fill="#333"/><path d="M154.994,86.129l4.894-5.372h2.1V80.9L157.2,86.276h-2.208Z" fill="#333"/><rect x="0.002" y="78.11" width="86.968" height="38.278" rx="4.582" fill="#db0000"/><path d="M30.061,111.444H26.177v-9.877q0-2.811-2.143-2.812-2.244,0-2.243,3.382v.7H17.806v-.9q0-3.147-2.41-3.147a2.171,2.171,0,0,0-1.808.8,3.356,3.356,0,0,0-.635,2.143,3.031,3.031,0,0,0,.836,2.343,3.086,3.086,0,0,0,2.176.771,10.623,10.623,0,0,0,1.708-.168v3.281a11.608,11.608,0,0,1-2.143.2,6.392,6.392,0,0,1-4.7-1.741,6.341,6.341,0,0,1-1.757-4.72,6.408,6.408,0,0,1,1.59-4.47,5.633,5.633,0,0,1,4.4-1.758,5.486,5.486,0,0,1,3.181.854,3.572,3.572,0,0,1,1.54,2.226,4.3,4.3,0,0,1,1.306-2.243,3.619,3.619,0,0,1,2.511-.87,3.1,3.1,0,0,1,2.578,1.138V92.528H6.959V89.347H33.275v3.181H30.061Z" fill="#fffdff"/><path d="M42.214,92.528H39.033v18.916H35.149V94.838a3,3,0,0,0-.4-1.808,1.9,1.9,0,0,0-1.541-.5H31.935V89.347h1.708a2.058,2.058,0,0,1,1.941,1.306,18.992,18.992,0,0,1-.334-3.281v-.737h3.783v2.712h3.181Z" fill="#fffdff"/><path d="M57.547,92.528H40.875V89.347H51.588a7.322,7.322,0,0,0,.1-1.2,2.515,2.515,0,0,0-.419-1.573,1.792,1.792,0,0,0-1.49-.537,11.664,11.664,0,0,0-2.159.336,11.974,11.974,0,0,1-2.428.334,5.979,5.979,0,0,1-2.88-.7V82.986a6.029,6.029,0,0,0,2.545.569,11.357,11.357,0,0,0,2.477-.419,11.975,11.975,0,0,1,2.813-.418,5.08,5.08,0,0,1,3.8,1.322,4.938,4.938,0,0,1,1.288,3.6,10.713,10.713,0,0,1-.167,1.708h2.477ZM55.2,111.745h-5.19l-6.361-4.453v-3.113h3.18a5.311,5.311,0,0,0,3.516-1.088,3.69,3.69,0,0,0,1.205-2.93,2.926,2.926,0,0,0-.669-2.042,2.364,2.364,0,0,0-1.842-.736,2.267,2.267,0,0,0-1.724.686,2.445,2.445,0,0,0-.653,1.757A6.3,6.3,0,0,0,46.9,101.6H43.318a6.845,6.845,0,0,1-.334-2.176,4.838,4.838,0,0,1,1.623-3.75A6.207,6.207,0,0,1,48.943,94.2a6.336,6.336,0,0,1,4.637,1.725,5.7,5.7,0,0,1,1.758,4.235,5.9,5.9,0,0,1-1.825,4.52,8.593,8.593,0,0,1-4.905,2.109l6.6,4.553Z" fill="#fffdff"/><path d="M80.012,92.528h-23.8V89.347h23.8Zm-2.243,10.714a7.833,7.833,0,0,1-2.409,5.942,9.038,9.038,0,0,1-6.5,2.294,9.783,9.783,0,0,1-7.551-3.148,11.544,11.544,0,0,1-2.9-8.135,19.549,19.549,0,0,1,.1-1.976h3.716q-.068,1.341-.068,1.876a9.094,9.094,0,0,0,1.775,5.942,6.021,6.021,0,0,0,4.922,2.159,5.75,5.75,0,0,0,3.85-1.172,4.521,4.521,0,0,0,1.541-3.213,9.569,9.569,0,0,1-3.45.6,6.007,6.007,0,0,1-4.1-1.39,5.257,5.257,0,0,1,.017-7.55,6.225,6.225,0,0,1,4.252-1.406,13.387,13.387,0,0,1,2.745.3v3.147a16.287,16.287,0,0,0-2.008-.133,3.666,3.666,0,0,0-1.959.468A1.55,1.55,0,0,0,69,99.257q0,1.975,2.678,1.976A10.5,10.5,0,0,0,77.2,99.525,11.675,11.675,0,0,1,77.769,103.242Z" fill="#fffdff"/><path d="M122.423,45.673c-.1.035-.2.074-.3.112A17.608,17.608,0,0,0,110.7,62.469c0,.508-.782.439-.786-.066A18.367,18.367,0,0,1,122.1,44.957c.008,0,.015,0,.023-.008C122.577,44.815,122.9,45.508,122.423,45.673Z" fill="#e1093d"/><path d="M124.36,51.268a11.631,11.631,0,0,0-7.739,11.089c0,.508-.782.439-.786-.065a12.374,12.374,0,0,1,6.284-10.866,12.115,12.115,0,0,1,1.91-.874C124.5,50.386,124.837,51.1,124.36,51.268Z" fill="#e1093d"/><path d="M132.075,73.629c-.474.169-.809-.544-.329-.716a11.617,11.617,0,0,0,7.738-11.087c0-.508.78-.439.785.064A12.373,12.373,0,0,1,132.075,73.629Z" fill="#e1093d"/><path d="M134.011,79.223c-.475.168-.809-.547-.33-.714A17.6,17.6,0,0,0,145.4,61.715c-.007-.509.778-.44.786.062A18.355,18.355,0,0,1,134.011,79.223Z" fill="#e1093d"/><circle cx="128.052" cy="62.09" r="6.96" transform="translate(-13.283 78.735) rotate(-32.584)" fill="#e1093d"/><polygon points="132.15 62.09 125.518 58.262 125.518 65.919 132.15 62.09" fill="#fff"/><circle cx="63.223" cy="65.952" r="5.323" fill="#fbbc04"/><path d="M64.149,65.1l.33.595-.86.311.86.312-.343.615-.715-.589.152.914h-.688l.145-.914-.709.6-.363-.635.86-.311-.853-.3.337-.609.735.583-.152-.921h.7l-.159.921Z" fill="#fff"/><circle cx="49.284" cy="65.952" r="3.952" fill="#34a853"/><path d="M49.061,67.564l-1.444-1.483L49.061,64.6h1.164l-1.442,1.482,1.442,1.483Z" fill="#fff"/><circle cx="77.658" cy="65.952" r="3.952" fill="#ea4335"/><path d="M76.653,64.6h1.171l1.443,1.482-1.443,1.483H76.653L78.1,66.081Z" fill="#fff"/></g></g></svg>